<svg viewBox="0 0 64 64" xmlns="http://www.w3.org/2000/svg"><g data-name="Layer 12"><path d="M29 38v4M35 38v4M27 11v18h4v-6h2a6 6 0 0 0 6-6 6 6 0 0 0-6-6Z" fill="none" stroke="#faea0a" stroke-linejoin="round" stroke-width="2px" class="stroke-000000"></path><path d="M31 19v-4h2a2 2 0 0 1 2 2 2 2 0 0 1-2 2Z" fill="none" stroke="#faea0a" stroke-linejoin="round" stroke-width="2px" class="stroke-000000"></path><circle cx="32" cy="20" r="14" fill="none" stroke="#faea0a" stroke-linejoin="round" stroke-width="2px" class="stroke-000000"></circle><circle cx="32" cy="20" r="18" fill="none" stroke="#faea0a" stroke-linejoin="round" stroke-width="2px" class="stroke-000000"></circle><path d="M19 42h26v16H19zM29 58v5M35 58v5" fill="none" stroke="#faea0a" stroke-linejoin="round" stroke-width="2px" class="stroke-000000"></path><path d="M25 48h9v-3l5 5-5 5v-3h-9v-4z" fill="none" stroke="#faea0a" stroke-linejoin="round" stroke-width="2px" class="stroke-000000"></path></g></svg>